<?xml version="1.0" encoding="UTF-8"?>
<svg width="14px" height="13px" viewBox="0 0 14 13" version="1.1" xmlns="http://www.w3.org/2000/svg" xmlns:xlink="http://www.w3.org/1999/xlink">
    <!-- Generator: Sketch 46.2 (44496) - http://www.bohemiancoding.com/sketch -->
    <title>Fill 38</title>
    <desc>Created with Sketch.</desc>
    <defs></defs>
    <g id="Page-2" stroke="none" stroke-width="1" fill="none" fill-rule="evenodd">
        <g id="Desktop-HD" transform="translate(-281.000000, -478.000000)" fill="#FFFFFF">
            <path d="M295,491 L291.904833,491 L291.904833,486.426603 C291.904833,485.232176 291.421833,484.416901 290.357444,484.416901 C289.5435,484.416901 289.091222,484.966966 288.880056,485.49935 C288.799944,485.687944 288.813167,485.955118 288.813167,486.218364 L288.813167,491 L285.747556,491 C285.747556,491 285.788389,482.904222 285.747556,482.168314 L288.813167,482.168314 L288.813167,483.553299 C288.994389,482.948227 289.973611,482.083447 291.536556,482.083447 C293.475944,482.083447 295,483.353311 295,486.088706 L295,491 L295,491 Z M282.647333,481.063862 L282.6275,481.063862 C281.6405,481.063862 281,480.387675 281,479.532324 C281,478.66165 281.658778,478 282.667167,478 C283.672833,478 284.291944,478.660078 284.312167,479.530359 C284.312167,480.386103 283.672833,481.063862 282.647333,481.063862 L282.647333,481.063862 Z M281.351944,482.168314 L284.082333,482.168314 L284.082333,491 L281.351944,491 L281.351944,482.168314 Z" id="Fill-38"></path>
        </g>
    </g>
</svg>