<?xml version="1.0" encoding="UTF-8"?>
<svg width="14px" height="11px" viewBox="0 0 14 11" version="1.1" xmlns="http://www.w3.org/2000/svg" xmlns:xlink="http://www.w3.org/1999/xlink">
    <!-- Generator: Sketch 46.2 (44496) - http://www.bohemiancoding.com/sketch -->
    <title>Combined Shape</title>
    <desc>Created with Sketch.</desc>
    <defs></defs>
    <g id="Page-2" stroke="none" stroke-width="1" fill="none" fill-rule="evenodd">
        <g id="Desktop-HD" transform="translate(-209.000000, -481.000000)" fill="#FFFFFF">
            <path d="M210.343712,484.390693 C210.020849,484.171967 209.71611,483.871158 209.429685,483.488362 C209.14326,483.105567 209,482.750004 209,482.421867 C209,482.015674 209.108068,481.677084 209.324205,481.406193 C209.540342,481.135398 209.848918,481 210.249932,481 L221.749973,481 C222.08837,481 222.381411,481.122356 222.628808,481.367165 C222.876205,481.611974 223,481.906263 223,482.250031 C223,482.661497 222.872466,483.054745 222.61711,483.429581 C222.361849,483.80461 222.04426,484.12498 221.664055,484.390502 C219.705781,485.749943 218.486918,486.596274 218.007849,486.92959 C217.955781,486.966124 217.845027,487.045426 217.675781,487.167878 C217.506534,487.290331 217.365959,487.389386 217.253959,487.464852 C217.141959,487.540318 217.006562,487.624893 216.847767,487.718674 C216.688973,487.812264 216.539096,487.882743 216.398521,487.929442 C216.257849,487.976428 216.12763,487.99973 216.007863,487.99973 L216,487.99973 L215.992137,487.99973 C215.87237,487.99973 215.742151,487.976428 215.601479,487.929442 C215.460904,487.882743 215.311123,487.812359 215.152233,487.718674 C214.993342,487.624989 214.857945,487.540318 214.745945,487.464852 C214.634041,487.389386 214.49337,487.290331 214.324123,487.167878 C214.154877,487.045522 214.044219,486.966124 213.992151,486.92959 C213.518164,486.59637 212.835904,486.121136 211.945274,485.503984 C211.054644,484.886832 210.520822,484.515639 210.343712,484.390693 Z M222.218685,485.226572 C222.515658,485.023476 222.776,484.79679 223,484.546899 L223,490.749874 C223,491.093737 222.87774,491.387834 222.632836,491.632739 C222.388027,491.877644 222.09374,492 221.750068,492 L210.250027,492 C209.90626,492 209.611973,491.877644 209.367164,491.632739 C209.122356,491.38793 209,491.093737 209,490.749874 L209,484.546899 C209.229178,484.802064 209.492205,485.02875 209.789082,485.226572 C211.674479,486.507767 212.968712,487.406263 213.671877,487.921867 C213.968753,488.140593 214.20963,488.311278 214.394507,488.433539 C214.579384,488.555991 214.825534,488.680937 215.132767,488.808567 C215.44,488.936198 215.726521,488.999965 215.992137,488.999965 L216,488.999965 L216.007959,488.999965 C216.273575,488.999965 216.56,488.936198 216.867233,488.808567 C217.174562,488.680937 217.420616,488.555991 217.605493,488.433539 C217.790466,488.311278 218.031342,488.140593 218.328219,487.921867 C219.213479,487.281221 220.510493,486.382726 222.218685,485.226572 Z" id="Combined-Shape"></path>
        </g>
    </g>
</svg>